<svg xmlns="http://www.w3.org/2000/svg" viewBox="0 0 24 24" width="48" height="48">
  <style>
    .mu-body{animation:mu-sway .8s ease-in-out infinite;transform-origin:12px 12px}
    @keyframes mu-sway{0%,100%{transform:rotate(0)}50%{transform:rotate(3deg)}}
    .mu-n1{animation:mu-float 1.6s ease-in-out infinite;transform-origin:4px 16px}
    .mu-n2{animation:mu-float 1.6s ease-in-out .4s infinite;transform-origin:17px 13px}
    @keyframes mu-float{0%,100%{opacity:0;transform:translateY(0) scale(.5)}30%,70%{opacity:.7;transform:translateY(-4px) scale(1)}100%{opacity:0;transform:translateY(-8px) scale(.5)}}
  </style>
  <g class="mu-body">
    <path d="M9 18 C9 20.2 7.2 21.5 5.5 21.5 C3.8 21.5 2.5 20.2 2.5 18.5 C2.5 16.8 3.8 15.5 5.5 15.5 C6.3 15.5 7 15.8 7.5 16.2 L7.5 4 L21.5 2 L21.5 15.5 C21.5 17.7 19.7 19 18 19 C16.3 19 15 17.7 15 16 C15 14.3 16.3 13 18 13 C18.8 13 19.5 13.3 20 13.7 L20 5 L9 6.5 Z" fill="#c084fc"/>
  </g>
  <text class="mu-n1" x="4" y="16" font-size="6" fill="#c084fc" opacity="0">♪</text>
  <text class="mu-n2" x="17" y="13" font-size="5" fill="#e9d5ff" opacity="0">♫</text>
</svg>
