<svg xmlns="http://www.w3.org/2000/svg" viewBox="0 0 24 24" width="48" height="48">
  <style>
    .st-gear{animation:st-spin 4s linear infinite;transform-origin:12px 12px}
    @keyframes st-spin{0%{transform:rotate(0)}100%{transform:rotate(360deg)}}
  </style>
  <g class="st-gear">
    <path d="M10.5 2 L13.5 2 L14 4.5 L15.8 5.3 L18 3.8 L20.2 6 L18.7 8.2 L19.5 10 L22 10.5 L22 13.5 L19.5 14 L18.7 15.8 L20.2 18 L18 20.2 L15.8 18.7 L14 19.5 L13.5 22 L10.5 22 L10 19.5 L8.2 18.7 L6 20.2 L3.8 18 L5.3 15.8 L4.5 14 L2 13.5 L2 10.5 L4.5 10 L5.3 8.2 L3.8 6 L6 3.8 L8.2 5.3 L10 4.5 Z" fill="white" stroke="white" stroke-width="0.5" stroke-linejoin="round"/>
    <circle cx="12" cy="12" r="3.5" fill="#252530"/>
  </g>
</svg>
