<svg xmlns="http://www.w3.org/2000/svg" viewBox="0 0 48 48" width="48" height="48">
  <!-- Left sword -->
  <g transform="rotate(-25 24 24)">
    <rect x="22.5" y="30" width="3" height="5" rx="0.8" fill="#7c3aed"/>
    <rect x="20" y="28" width="8" height="2.5" rx="0.8" fill="#fbbf24"/>
    <path d="M22.5 28V17L24 13l1.5 4V28Z" fill="#d1d5db"/>
    <path d="M24 13v15h1.5V17Z" fill="#ffffff" opacity="0.7"/>
  </g>
  <!-- Right sword -->
  <g transform="rotate(25 24 24)">
    <rect x="22.5" y="30" width="3" height="5" rx="0.8" fill="#7c3aed"/>
    <rect x="20" y="28" width="8" height="2.5" rx="0.8" fill="#fbbf24"/>
    <path d="M22.5 28V17L24 13l1.5 4V28Z" fill="#d1d5db"/>
    <path d="M24 13v15h1.5V17Z" fill="#ffffff" opacity="0.7"/>
  </g>
  <!-- Shield body -->
  <path d="M24 8C18 8 13 11 13 11v12c0 8 11 15 11 15s11-7 11-15V11S29 8 24 8Z" fill="#1a0a2e" stroke="#a855f7" stroke-width="1.5"/>
  <path d="M24 11C19.5 11 16 13 16 13v10c0 6 8 11 8 11s8-5 8-11V13S28.5 11 24 11Z" fill="#2d1b4e"/>
  <!-- Shield emblem - star -->
  <path d="M24 17l1.5 3 3.5.5-2.5 2.5.5 3.5L24 25l-3 1.5.5-3.5L19 20.5l3.5-.5Z" fill="#fbbf24"/>
</svg>
