<svg xmlns="http://www.w3.org/2000/svg" viewBox="0 0 24 24" width="256" height="256"><rect x="0.45" y="0.45" width="23.1" height="23.1" rx="5.4" fill="#7c2410" stroke="#ff6a3d" stroke-width="0.9"/><g transform="translate(4.56 4.56) scale(0.62)"><g fill="#ff6a3d" stroke="#ff6a3d" stroke-width=".6" stroke-linecap="round" stroke-linejoin="round"><path d="M8.5 14.5A2.5 2.5 0 0 0 11 12c0-1.38-.5-2-1-3-1.072-2.143-.224-4.054 2-6 .5 2.5 2 4.9 4 6.5 2 1.6 3 3.5 3 5.5a7 7 0 1 1-14 0c0-1.153.433-2.294 1-3a2.5 2.5 0 0 0 2.5 2.5z"/></g></g></svg>
