<svg xmlns="http://www.w3.org/2000/svg" viewBox="0 0 240 240" width="240" height="240"><g transform="scale(10)"><rect x="0.45" y="0.45" width="23.1" height="23.1" rx="5.4" fill="#3f4b5c" stroke="#c3cdd9" stroke-width="0.9"/><g transform="translate(4.56 4.56) scale(0.62)"><g fill="#c3cdd9" stroke="#c3cdd9" stroke-width="3" stroke-linecap="round" stroke-linejoin="round"><path d="M21 16V8a2 2 0 0 0-1-1.73l-7-4a2 2 0 0 0-2 0l-7 4A2 2 0 0 0 3 8v8a2 2 0 0 0 1 1.73l7 4a2 2 0 0 0 2 0l7-4A2 2 0 0 0 21 16z" fill="none"/></g></g></g></svg>
