<svg xmlns="http://www.w3.org/2000/svg" viewBox="0 0 200 200">
  <rect width="200" height="200" rx="32" fill="#78716c"/>
  <path d="M90 24 L110 24 L114 44 L126 50 L142 34 L156 48 L144 66 L150 78 L172 78 L172 98 L150 102 L144 114 L158 132 L144 146 L128 132 L116 140 L114 162 L90 162 L86 140 L74 132 L56 146 L44 132 L56 114 L50 102 L28 98 L28 78 L50 78 L56 66 L42 48 L56 34 L74 50 L86 44 Z" fill="white" stroke="white" stroke-width="10" stroke-linejoin="round"/>
  <circle cx="100" cy="93" r="24" fill="#78716c"/>
</svg>
