<svg xmlns="http://www.w3.org/2000/svg" viewBox="0 0 400 400" width="1024" height="1024">
  <defs><g id="t">
    <rect x="6" y="8" width="24" height="16" rx="5" fill="none" stroke="#fff" stroke-width="1.5"/>
    <path d="M12 24 L10 30 L18 24" fill="none" stroke="#fff" stroke-width="1.2"/>
    <circle cx="13" cy="16" r="2" fill="#fff" opacity=".5"/>
    <circle cx="18" cy="16" r="2" fill="#fff" opacity=".5"/>
    <circle cx="23" cy="16" r="2" fill="#fff" opacity=".5"/>
    <rect x="56" y="6" width="24" height="14" rx="5" fill="none" stroke="#fff" stroke-width="1.3"/>
    <path d="M74 20 L78 26 L68 20" fill="none" stroke="#fff" stroke-width="1.1"/>
    <path d="M60 11 H76" stroke="#fff" stroke-width="1" opacity=".5"/>
    <path d="M60 15 H70" stroke="#fff" stroke-width="0.8" opacity=".4"/>
    <path d="M18 60 Q18 53 22 53 Q26 53 26 60 L22 68 L18 60Z" fill="none" stroke="#fff" stroke-width="1.5"/>
    <rect x="58" y="56" width="18" height="10" rx="4" fill="none" stroke="#fff" stroke-width="1.2"/>
    <path d="M62 66 L60 72 L68 66" fill="none" stroke="#fff" stroke-width="1"/>
  </g></defs>
  <use href="#t" x="0" y="0"/><use href="#t" x="100" y="0"/><use href="#t" x="200" y="0"/><use href="#t" x="300" y="0"/>
  <use href="#t" x="0" y="100"/><use href="#t" x="100" y="100"/><use href="#t" x="200" y="100"/><use href="#t" x="300" y="100"/>
  <use href="#t" x="0" y="200"/><use href="#t" x="100" y="200"/><use href="#t" x="200" y="200"/><use href="#t" x="300" y="200"/>
  <use href="#t" x="0" y="300"/><use href="#t" x="100" y="300"/><use href="#t" x="200" y="300"/><use href="#t" x="300" y="300"/>
</svg>
