<svg xmlns="http://www.w3.org/2000/svg" viewBox="0 0 400 400" width="1024" height="1024">
  <defs><g id="t">
    <path d="M18 18 L20 8 L22 18 L32 20 L22 22 L20 32 L18 22 L8 20Z" fill="#fff" opacity=".55"/>
    <path d="M68 53 L70 46 L72 53 L79 55 L72 57 L70 64 L68 57 L61 55Z" fill="#fff" opacity=".45"/>
    <path d="M54 16 L55.5 12 L57 16 L61 17.5 L57 19 L55.5 23 L54 19 L50 17.5Z" fill="#fff" opacity=".35"/>
    <path d="M20 67 L21.5 63 L23 67 L27 68.5 L23 70 L21.5 74 L20 70 L16 68.5Z" fill="#fff" opacity=".3"/>
    <path d="M78 83 L80 77 L82 83 L88 85 L82 87 L80 93 L78 87 L72 85Z" fill="#fff" opacity=".4"/>
  </g></defs>
  <use href="#t" x="0" y="0"/><use href="#t" x="100" y="0"/><use href="#t" x="200" y="0"/><use href="#t" x="300" y="0"/>
  <use href="#t" x="0" y="100"/><use href="#t" x="100" y="100"/><use href="#t" x="200" y="100"/><use href="#t" x="300" y="100"/>
  <use href="#t" x="0" y="200"/><use href="#t" x="100" y="200"/><use href="#t" x="200" y="200"/><use href="#t" x="300" y="200"/>
  <use href="#t" x="0" y="300"/><use href="#t" x="100" y="300"/><use href="#t" x="200" y="300"/><use href="#t" x="300" y="300"/>
</svg>
