<svg xmlns="http://www.w3.org/2000/svg" viewBox="0 0 400 400" width="1024" height="1024">
  <defs><g id="g">
    <!-- Crossed swords -->
    <path d="M14 8 L26 20 M26 8 L14 20" stroke="#fff" stroke-width="1.5" stroke-linecap="round" fill="none"/>
    <circle cx="20" cy="14" r="3" fill="none" stroke="#fff" stroke-width="1"/>
    <!-- Shield -->
    <path d="M60 8 L72 8 L72 22 Q66 30 60 22Z" fill="none" stroke="#fff" stroke-width="1.2"/>
    <path d="M63 12 L69 12 L69 20 Q66 24 63 20Z" fill="none" stroke="#fff" stroke-width="0.8"/>
    <!-- Banner -->
    <rect x="8" y="56" width="18" height="24" rx="2" fill="none" stroke="#fff" stroke-width="1"/>
    <path d="M8 70 L17 65 L26 70" fill="none" stroke="#fff" stroke-width="0.8"/>
    <!-- Crown -->
    <path d="M56 58 L60 50 L66 58 L72 50 L76 58 V66 H56Z" fill="none" stroke="#fff" stroke-width="1"/>
    <!-- Sparkle -->
    <path d="M44 40 L45.5 34 L47 40 L53 41.5 L47 43 L45.5 49 L44 43 L38 41.5Z" fill="#fff" opacity=".5"/>
  </g></defs>
  <use href="#g" x="0" y="0"/><use href="#g" x="100" y="0"/><use href="#g" x="200" y="0"/><use href="#g" x="300" y="0"/>
  <use href="#g" x="0" y="100"/><use href="#g" x="100" y="100"/><use href="#g" x="200" y="100"/><use href="#g" x="300" y="100"/>
  <use href="#g" x="0" y="200"/><use href="#g" x="100" y="200"/><use href="#g" x="200" y="200"/><use href="#g" x="300" y="200"/>
  <use href="#g" x="0" y="300"/><use href="#g" x="100" y="300"/><use href="#g" x="200" y="300"/><use href="#g" x="300" y="300"/>
</svg>
