<svg xmlns="http://www.w3.org/2000/svg" viewBox="0 0 400 400" width="1024" height="1024">
  <defs><g id="t">
    <rect x="8" y="8" width="8" height="4" rx="1.5" fill="#fff"/>
    <path d="M7 12 L5 18 Q5 26 12 26 Q19 26 19 18 L17 12Z" fill="none" stroke="#fff" stroke-width="1.5"/>
    <path d="M52 6 L60 14 L52 22 L44 14Z" fill="none" stroke="#fff" stroke-width="1.5"/>
    <path d="M44 14 L52 6 L60 14" fill="none" stroke="#fff" stroke-width="1"/>
    <rect x="62" y="58" width="20" height="14" rx="2" fill="none" stroke="#fff" stroke-width="1.5"/>
    <path d="M62 65 H82" stroke="#fff" stroke-width="0.8"/>
    <rect x="69" y="60" width="6" height="4" rx="1" fill="none" stroke="#fff" stroke-width="1"/>
    <circle cx="14" cy="66" r="4" fill="none" stroke="#fff" stroke-width="1.3"/>
    <path d="M18 66 H28" stroke="#fff" stroke-width="1.1"/>
    <circle cx="28" cy="66" r="3" fill="none" stroke="#fff" stroke-width="1.1"/>
    <path d="M50 44 L51.5 39 L53 44 L58 45.5 L53 47 L51.5 52 L50 47 L45 45.5Z" fill="#fff" opacity=".55"/>
  </g></defs>
  <use href="#t" x="0" y="0"/><use href="#t" x="100" y="0"/><use href="#t" x="200" y="0"/><use href="#t" x="300" y="0"/>
  <use href="#t" x="0" y="100"/><use href="#t" x="100" y="100"/><use href="#t" x="200" y="100"/><use href="#t" x="300" y="100"/>
  <use href="#t" x="0" y="200"/><use href="#t" x="100" y="200"/><use href="#t" x="200" y="200"/><use href="#t" x="300" y="200"/>
  <use href="#t" x="0" y="300"/><use href="#t" x="100" y="300"/><use href="#t" x="200" y="300"/><use href="#t" x="300" y="300"/>
</svg>
