<svg xmlns="http://www.w3.org/2000/svg" viewBox="0 0 400 400" width="1024" height="1024">
  <defs><g id="t">
    <path d="M14 14 Q14 6 18 6 Q22 6 22 14 V20 Q22 24 26 24 H10 Q14 24 14 20Z" fill="none" stroke="#fff" stroke-width="1.5"/>
    <circle cx="18" cy="28" r="2.5" fill="none" stroke="#fff" stroke-width="1.2"/>
    <path d="M26 10 L29 8" stroke="#fff" stroke-width="1" opacity=".6"/>
    <path d="M10 10 L7 8" stroke="#fff" stroke-width="1" opacity=".6"/>
    <circle cx="62" cy="16" r="8" fill="none" stroke="#fff" stroke-width="1.5"/>
    <rect x="56" y="54" width="24" height="16" rx="2.5" fill="none" stroke="#fff" stroke-width="1.3"/>
    <path d="M56 54 L68 64 L80 54" fill="none" stroke="#fff" stroke-width="1.1"/>
    <polygon points="20,57 22.5,62 28,62.5 24,66 25,72 20,69 15,72 16,66 12,62.5 17.5,62" fill="#fff" opacity=".4"/>
  </g></defs>
  <use href="#t" x="0" y="0"/><use href="#t" x="100" y="0"/><use href="#t" x="200" y="0"/><use href="#t" x="300" y="0"/>
  <use href="#t" x="0" y="100"/><use href="#t" x="100" y="100"/><use href="#t" x="200" y="100"/><use href="#t" x="300" y="100"/>
  <use href="#t" x="0" y="200"/><use href="#t" x="100" y="200"/><use href="#t" x="200" y="200"/><use href="#t" x="300" y="200"/>
  <use href="#t" x="0" y="300"/><use href="#t" x="100" y="300"/><use href="#t" x="200" y="300"/><use href="#t" x="300" y="300"/>
</svg>
