<svg xmlns="http://www.w3.org/2000/svg" viewBox="0 0 400 400" width="1024" height="1024">
  <defs><g id="t">
    <circle cx="12" cy="24" r="4" fill="none" stroke="#fff" stroke-width="1.5"/>
    <path d="M16 24 V8 L24 6 V12" stroke="#fff" stroke-width="1.5" fill="none"/>
    <path d="M48 12 Q52 18 48 24" fill="none" stroke="#fff" stroke-width="1.3"/>
    <path d="M52 10 Q57 18 52 26" fill="none" stroke="#fff" stroke-width="1.1"/>
    <path d="M56 8 Q62 18 56 28" fill="none" stroke="#fff" stroke-width="0.9"/>
    <circle cx="20" cy="62" r="10" fill="none" stroke="#fff" stroke-width="1.3"/>
    <circle cx="20" cy="62" r="4" fill="none" stroke="#fff" stroke-width="1"/>
    <circle cx="20" cy="62" r="1.5" fill="#fff"/>
    <rect x="54" y="56" width="3" height="14" rx="1.5" fill="#fff" opacity=".5"/>
    <rect x="60" y="50" width="3" height="20" rx="1.5" fill="#fff" opacity=".45"/>
    <rect x="66" y="54" width="3" height="16" rx="1.5" fill="#fff" opacity=".5"/>
    <rect x="72" y="48" width="3" height="22" rx="1.5" fill="#fff" opacity=".4"/>
  </g></defs>
  <use href="#t" x="0" y="0"/><use href="#t" x="100" y="0"/><use href="#t" x="200" y="0"/><use href="#t" x="300" y="0"/>
  <use href="#t" x="0" y="100"/><use href="#t" x="100" y="100"/><use href="#t" x="200" y="100"/><use href="#t" x="300" y="100"/>
  <use href="#t" x="0" y="200"/><use href="#t" x="100" y="200"/><use href="#t" x="200" y="200"/><use href="#t" x="300" y="200"/>
  <use href="#t" x="0" y="300"/><use href="#t" x="100" y="300"/><use href="#t" x="200" y="300"/><use href="#t" x="300" y="300"/>
</svg>
