<svg xmlns="http://www.w3.org/2000/svg" viewBox="0 0 24 24">
  <path d="M3 13 C3 11.5 4 11 5.5 11 L9.5 11 C11 11 12 11.5 12 13 L12 20 C12 21.5 11 22.5 9.5 22.5 L5.5 22.5 C4 22.5 3 21.5 3 20 Z" fill="#4338ca"/>
  <path d="M5 9 C5 8 5.5 7.5 6.5 7.5 L8.5 7.5 C9.5 7.5 10 8 10 9 L10 11.5 L5 11.5 Z" fill="#5b21b6"/>
  <ellipse cx="7.5" cy="7.5" rx="3.2" ry="1" fill="#6d28d9"/>
  <path d="M3 16 C5 15 10 15 12 16 L12 20 C12 21.5 11 22.5 9.5 22.5 L5.5 22.5 C4 22.5 3 21.5 3 20 Z" fill="#312e81"/>
  <ellipse cx="4.8" cy="14" rx="0.8" ry="2.5" fill="#6366f1" opacity="0.25"/>
  <path d="M19 1 C19 1 22 3.5 20.5 8 C19.5 11 17 13 15 14.5 L13.5 13 C15 11.5 17.5 9 18.5 5.5 C19.5 3 19 1 19 1 Z" fill="#c4b5fd"/>
  <path d="M17.5 3 C17.5 3 19.5 5 18.5 8 C18 9.5 16.5 11 15.5 12 L14.5 11 C15.5 10 17 8 17.5 5.5 C18 4 17.5 3 17.5 3 Z" fill="#e9ddff" opacity="0.35"/>
  <path d="M15 14.5 L13.5 13 L10 18 C9.5 18.8 9.5 19.5 10 20 L10.5 20 Z" fill="#7c3aed"/>
  <path d="M10 18 L10 20 L8.5 21 C8 21.5 7.5 21 8 20.5 Z" fill="#5b21b6"/>
  <circle cx="22" cy="3" r="1" fill="#c4b5fd"/>
  <circle cx="1.5" cy="10" r="0.7" fill="#6366f1"/>
</svg>
